<?xml version="1.0" ?><!DOCTYPE svg  PUBLIC '-//W3C//DTD SVG 1.1 Tiny//EN'  'http://www.w3.org/Graphics/SVG/1.1/DTD/svg11-tiny.dtd'><svg baseProfile="tiny" height="256px" id="Layer_1" version="1.1" viewBox="0 0 256 256" width="256px" xml:space="preserve" xmlns="http://www.w3.org/2000/svg" xmlns:xlink="http://www.w3.org/1999/xlink"><g><path d="M91.231,7.155h68.382c49.08,0,89.232,40.155,89.232,89.233v68.381   c0,49.077-40.151,89.231-89.232,89.231H91.231C42.153,253.999,2,213.845,2,164.769V96.388C2,47.31,42.153,7.155,91.231,7.155   L91.231,7.155z" fill="#3A5A98" fill-rule="evenodd"/><path d="M93.152,2.001h69.787C213.024,2.001,254,42.978,254,93.062v69.787   c0,31.876-16.601,60.062-41.583,76.342c23.153-16.456,38.331-43.488,38.331-73.894V95.859c0-49.835-40.772-90.607-90.607-90.607   H90.704c-30.393,0-57.414,15.166-73.874,38.301C33.115,18.587,61.287,2.001,93.152,2.001L93.152,2.001z" fill="#3A5A98" fill-rule="evenodd"/><path d="M140.814,150.828l14.987-1.394l12.545-8.363l-7.072-2.789h-22.255v12.546H140.814   L140.814,150.828z M139.105,84.479l6.818-0.003l15.334-1.406l12.546-8.364l-2.79-30.694V71.93l-16.517,0.01   C142.852,71.941,139.636,76.914,139.105,84.479L139.105,84.479z M170.871,43.992c-3.239-0.459-19.938-3.544-31.185-3.544   c-31.634,2.691-57.988,29.429-57.988,56.145v10.473h25.093l-0.002-23.018c0-26.717,16.308-41.266,40.143-41.266   C158.174,42.782,167.847,43.602,170.871,43.992L170.871,43.992z M79.865,107.066l-2.821-2.788l-22.303,15.335v31.216H81.7v80.091   h32.228l27.88-9.755l-2.788-7.037v4.248h-32.228v-80.094H79.833v-31.216H79.865L79.865,107.066z" fill="#294070" fill-rule="evenodd"/><path d="M163.463,135.494l3.308-25.638h-27.751h-2.789v-2.79V87.137c0-5.12,0.775-9.5,3.544-12.784l0.005,0.004   c2.784-3.301,7.327-5.206,14.718-5.206v0.011l13.727-0.008V46.503c-2.09-0.198-5.097-0.43-8.704-0.614   c-3.61-0.183-7.901-0.318-12.589-0.318c-11.414,0-20.935,3.506-27.468,10.22c-6.271,6.448-9.885,15.951-9.885,28.256h-0.011   l0.001,23.018l0.002,2.79h-2.779H82.622v25.638h24.169h2.788v2.788v77.305h26.651v-77.305v-2.788h2.789H163.463L163.463,135.494z    M172.687,107.415l-4.026,31.216l-0.315,2.439h-2.441h-24.097v77.305v2.788h-2.788h-32.228h-2.79v-2.788v-77.305H79.833h-2.79   v-2.789v-31.216v-2.788h2.79h24.181l-0.002-20.229H104c0-13.832,4.195-24.649,11.476-32.135c7.62-7.831,18.521-11.92,31.456-11.92   c4.564,0,9.002,0.144,12.872,0.342c5.564,0.283,9.819,0.688,11.569,0.92l2.431,0.325v2.431V71.93v2.775l-2.79,0.002l-16.517,0.01   v0.011c-5.564,0-8.763,1.173-10.474,3.207v0.011c-1.729,2.052-2.216,5.272-2.216,9.189v17.141h28.123h3.161L172.687,107.415   L172.687,107.415z" fill="#3A5A98"/><path d="M165.905,138.282l4.025-31.215h-30.911V87.135c0-9.037,2.52-15.197,15.478-15.197   l16.517-0.009V44.013c-2.852-0.381-12.655-1.231-24.083-1.231c-23.835,0-40.142,14.551-40.142,41.266l0.001,23.019H79.833v31.215   h26.958v80.094h32.228v-80.094H165.905L165.905,138.282z" fill="#FFFFFF" fill-rule="evenodd"/></g><rect fill="none" height="256" width="256" x="0"/></svg>