<?xml version="1.0" ?><!DOCTYPE svg  PUBLIC '-//W3C//DTD SVG 1.1 Tiny//EN'  'http://www.w3.org/Graphics/SVG/1.1/DTD/svg11-tiny.dtd'><svg baseProfile="tiny" height="512px" id="Layer_1" version="1.1" viewBox="0 0 512 512" width="512px" xml:space="preserve" xmlns="http://www.w3.org/2000/svg" xmlns:xlink="http://www.w3.org/1999/xlink"><g><path d="M182.315,13.829h137.039c98.353,0,178.815,80.47,178.815,178.821v137.034   c0,98.348-80.462,178.816-178.815,178.816H182.315C83.967,508.5,3.5,428.032,3.5,329.684V192.65   C3.5,94.299,83.967,13.829,182.315,13.829L182.315,13.829z" fill="#336699" fill-rule="evenodd"/><path d="M186.167,3.5h139.847C426.383,3.5,508.5,85.618,508.5,185.985v139.851   c0,63.88-33.271,120.363-83.333,152.987c46.4-32.977,76.814-87.15,76.814-148.081V191.589c0-99.868-81.701-181.575-181.568-181.575   H181.261c-60.908,0-115.058,30.391-148.039,76.753C65.855,36.74,122.311,3.5,186.167,3.5L186.167,3.5z" fill="#336699" fill-rule="evenodd"/><path d="M236.315,196.059c10.842-10.509,25.798-17.013,42.291-17.013h0.005v0.023   c16.502-0.002,31.467,6.49,42.29,16.983c10.882,10.539,17.614,25.11,17.614,41.215v0.006c0,16.089-6.732,30.665-17.614,41.208   c-10.842,10.503-25.802,17.008-42.295,17.008c-16.484,0-31.44-6.502-42.291-17.013c-10.878-10.539-17.61-25.115-17.61-41.204   C218.705,221.169,225.437,206.595,236.315,196.059L236.315,196.059z" fill="#264A70" fill-rule="evenodd"/><path d="M359.208,211.399h23.795h5.588v5.59v114.254c0,4.476-1.84,8.563-4.801,11.524   l0.009,0.009c-2.952,2.952-7.039,4.788-11.533,4.788H183.924c-4.476,0-8.558-1.836-11.515-4.788   c-2.97-2.961-4.811-7.049-4.811-11.534V216.989v-5.59h5.588h24.825h7.519l-2.193,7.207c-1.036,3.398-1.849,6.978-2.41,10.72   c-0.529,3.529-0.809,7.169-0.809,10.889c0,20.919,8.766,39.872,22.926,53.589c14.196,13.753,33.841,22.266,55.56,22.266   c21.715,0,41.364-8.513,55.564-22.266c14.16-13.713,22.927-32.67,22.927-53.589c0-3.746-0.281-7.399-0.805-10.939   c-0.556-3.705-1.37-7.268-2.41-10.67l-2.206-7.207H359.208L359.208,211.399z" fill="#264A70" fill-rule="evenodd"/><path d="M327.592,132.292c3.219-3.219,7.663-5.222,12.556-5.222h30.562   c4.878,0,9.327,2.01,12.555,5.242c3.215,3.221,5.213,7.666,5.213,12.542v29.13c0,4.89-1.998,9.339-5.213,12.555l-0.013-0.009   c-3.228,3.226-7.668,5.229-12.537,5.229h-30.567c-4.879,0-9.318-2.003-12.542-5.226l-0.009,0.009   c-3.219-3.217-5.217-7.668-5.217-12.558h0.022l-0.004-29.13h-0.023c0-4.874,2.003-9.325,5.217-12.544V132.292L327.592,132.292z" fill="#264A70" fill-rule="evenodd"/><path d="M162.44,100.115L162.44,100.115c-4.91,2.048-9.341,5.043-13.052,8.755   c-7.315,7.313-11.859,17.395-11.859,28.467v201.027c0,11.068,4.544,21.146,11.859,28.46c7.301,7.293,17.383,11.832,28.46,11.832   h201.018c11.086,0,21.168-4.535,28.47-11.832l-0.009-0.013c0.75-0.75,1.474-1.532,2.161-2.342   c-26.005,39.235-48.335,50.497-80.901,50.497H127.564c-19.102,0-34.731-15.607-34.731-34.704V179.24   C98.294,140.037,118.133,111.985,162.44,100.115L162.44,100.115z" fill="#264A70" fill-rule="evenodd"/><path d="M177.843,102.622h201.022c19.097,0,34.713,15.618,34.713,34.718v201.024   c0,19.093-15.616,34.7-34.713,34.7H177.843c-19.097,0-34.726-15.607-34.726-34.7V137.34   C143.117,118.24,158.746,102.622,177.843,102.622L177.843,102.622z M340.147,132.66c-6.71,0-12.18,5.491-12.18,12.194v29.132   c0,6.705,5.47,12.182,12.18,12.182h30.567c6.696,0,12.175-5.478,12.175-12.182v-29.132c0-6.702-5.48-12.194-12.18-12.194H340.147   L340.147,132.66z M383.003,216.989h-23.795c2.261,7.372,3.477,15.141,3.477,23.225c0,44.972-37.652,81.444-84.079,81.444   c-46.423,0-84.075-36.473-84.075-81.444c0-8.082,1.234-15.853,3.481-23.225h-24.825v114.254c0,5.918,4.828,10.733,10.737,10.733   h188.341c5.918,0,10.737-4.815,10.737-10.733V216.989L383.003,216.989z M278.606,184.633c-29.989,0-54.312,23.555-54.312,52.64   c0,29.055,24.324,52.629,54.312,52.629c30.002,0,54.321-23.573,54.321-52.629C332.927,208.189,308.608,184.633,278.606,184.633   L278.606,184.633z" fill="#FFFFFF" fill-rule="evenodd"/></g><rect fill="none" height="512" width="512" x="0" y="0"/></svg>